<svg width="17" height="17" viewBox="0 0 17 17" fill="none" xmlns="http://www.w3.org/2000/svg">
<g clip-path="url(#clip0_799_444)">
<path d="M8.79999 16.5393C6.67826 16.5393 4.64342 15.6965 3.14313 14.1962C1.64284 12.6959 0.799988 10.661 0.799988 8.53931C0.799988 6.41757 1.64284 4.38274 3.14313 2.88245C4.64342 1.38216 6.67826 0.539307 8.79999 0.539307C10.9217 0.539307 12.9566 1.38216 14.4568 2.88245C15.9571 4.38274 16.8 6.41757 16.8 8.53931C16.8 10.661 15.9571 12.6959 14.4568 14.1962C12.9566 15.6965 10.9217 16.5393 8.79999 16.5393ZM8.79999 14.9393C10.4974 14.9393 12.1252 14.265 13.3255 13.0648C14.5257 11.8646 15.2 10.2367 15.2 8.53931C15.2 6.84192 14.5257 5.21406 13.3255 4.01382C12.1252 2.81359 10.4974 2.13931 8.79999 2.13931C7.1026 2.13931 5.47474 2.81359 4.2745 4.01382C3.07427 5.21406 2.39999 6.84192 2.39999 8.53931C2.39999 10.2367 3.07427 11.8646 4.2745 13.0648C5.47474 14.265 7.1026 14.9393 8.79999 14.9393ZM7.99999 8.86731V3.73931H9.59999V8.21131L12.76 11.3713L11.632 12.4993L7.99999 8.86731Z" fill="#FFD600"/>
</g>
<defs>
<clipPath id="clip0_799_444">
<rect width="16" height="16" fill="white" transform="translate(0.799988 0.539307)"/>
</clipPath>
</defs>
</svg>
